<?xml version="1.0" encoding="UTF-8" standalone="no"?>
<svg
   xmlns:dc="http://purl.org/dc/elements/1.1/"
   xmlns:cc="http://creativecommons.org/ns#"
   xmlns:rdf="http://www.w3.org/1999/02/22-rdf-syntax-ns#"
   xmlns:svg="http://www.w3.org/2000/svg"
   xmlns="http://www.w3.org/2000/svg"
   xmlns:sodipodi="http://sodipodi.sourceforge.net/DTD/sodipodi-0.dtd"
   xmlns:inkscape="http://www.inkscape.org/namespaces/inkscape"
   version="1.1"
   id="svg46"
   width="123.6644"
   height="141.37686"
   viewBox="0 0 123.6644 141.37686"
   sodipodi:docname="santry-claus.svg"
   inkscape:version="1.0.2 (e86c8708, 2021-01-15)">
  <metadata
     id="metadata52">
    <rdf:RDF>
      <cc:Work
         rdf:about="">
        <dc:format>image/svg+xml</dc:format>
        <dc:type
           rdf:resource="http://purl.org/dc/dcmitype/StillImage" />
        <dc:title />
      </cc:Work>
    </rdf:RDF>
  </metadata>
  <defs
     id="defs50" />
  <sodipodi:namedview
     pagecolor="#ffffff"
     bordercolor="#666666"
     borderopacity="1"
     objecttolerance="10"
     gridtolerance="10"
     guidetolerance="10"
     inkscape:pageopacity="0"
     inkscape:pageshadow="2"
     inkscape:window-width="1134"
     inkscape:window-height="847"
     id="namedview48"
     showgrid="false"
     inkscape:zoom="2.5203126"
     inkscape:cx="85.333704"
     inkscape:cy="63.229709"
     inkscape:window-x="0"
     inkscape:window-y="25"
     inkscape:window-maximized="0"
     inkscape:current-layer="g54"
     fit-margin-top="0"
     fit-margin-left="0"
     fit-margin-right="0"
     fit-margin-bottom="0"
     inkscape:document-rotation="0" />
  <g
     inkscape:groupmode="layer"
     inkscape:label="Image"
     id="g54"
     transform="translate(-2.4444293,-5.0277644)">
    <path
       style="display:inline;fill:#ff2a2a"
       d="m 49.971818,64.864668 c 0.830622,0.272827 5.209003,4.455608 9.729742,9.295074 9.493662,10.162997 12.262676,11.705815 19.523502,10.877951 5.183793,-0.591045 7.03028,-2.105776 8.013404,-6.573646 0.502265,-2.282572 0.399283,-2.378616 -3.924026,-3.659621 C 76.733764,72.85456 70.900905,68.95325 66.212442,63.365762 62.305751,58.709949 62.127457,58.239264 63.404437,55.952808 64.154389,54.609989 70.124952,48.949047 76.672341,43.37292 88.671652,33.153645 94.832931,29.386913 98.467831,30.04813 c 5.001709,0.909852 6.030709,12.029377 2.447459,26.447443 -1.532139,6.164949 -2.212145,7.583138 -3.241543,6.760427 -1.395036,-1.114931 -2.610091,-7.48391 -3.08807,-16.186799 -0.349504,-6.363667 -1.105033,-6.515913 -8.419502,-1.696619 -5.690284,3.749164 -10.388414,8.909618 -10.842025,11.908944 -0.293761,1.942384 0.323414,2.579594 7.324887,7.562669 8.642176,6.150791 10.034124,7.578561 11.720366,12.021981 2.386195,6.287865 -3.344876,12.827255 -12.040047,13.738196 -5.21123,0.545951 -17.303328,-4.413093 -23.890877,-9.797797 -4.437592,-3.627314 -5.616666,-4.148425 -7.412414,-3.276043 -1.174484,0.570571 -2.535223,2.034686 -3.023861,3.253595 -0.794638,1.982219 -0.46511,2.615072 3.121258,5.99431 4.152424,3.912603 9.268845,6.506537 17.284991,8.763178 10.362368,2.917132 13.243845,4.728345 22.731559,14.288395 8.207533,8.27011 9.106278,9.43921 9.443888,12.28474 0.56656,4.7753 -3.178471,11.47545 -9.951221,17.8035 l -5.85383,5.46946 -7.421368,0.80429 c -4.081747,0.44235 -9.957497,0.17185 -13.057212,-0.60113 -20.87778,-5.20628 -56.2901809,-26.50108 -61.3332909,-36.88204 -1.10313,-2.27074 -0.946939,-2.49727 5.385301,-7.81065 10.4735729,-8.788372 19.0642749,-9.983234 11.5602029,-1.607887 -4.397365,4.907927 -4.126837,6.656927 2.195087,14.191107 7.04816,8.39966 12.848798,12.31647 28.463413,19.21956 13.619287,6.02098 19.108553,7.00479 27.975147,5.01383 3.392664,-0.76181 3.456544,-0.84997 4.729312,-6.52713 0.7096,-3.16519 1.076403,-9.11447 0.81511,-13.22062 l -0.475074,-7.46574 -6.641261,-2.41293 C 73.321523,106.76126 66.141327,103.90573 61.018224,101.74275 55.895123,99.57978 49.791488,97.512992 47.4546,97.149886 c -2.336896,-0.3631 -5.681985,-1.66827 -7.43354,-2.90037 -4.068038,-2.861577 -9.002156,-8.100901 -8.885426,-9.435044 0.04952,-0.565984 3.086749,-4.257865 6.749415,-8.204184 3.662659,-3.946315 7.540746,-8.31509 8.617964,-9.708394 1.349678,-1.745703 2.428099,-2.379056 3.468805,-2.037226 z"
       id="path58"
       inkscape:export-xdpi="96"
       inkscape:export-ydpi="96" />
    <path
       style="fill:#ff2a2a;stroke-width:0.396776"
       d="m 49.191828,65.003901 c 0.841745,-0.08381 3.077975,1.841285 7.848175,6.75623 11.892513,12.253378 14.160862,13.807518 19.931074,13.655632 5.964914,-0.157009 9.117967,-1.965778 10.12717,-5.809525 0.80146,-3.052512 0.624228,-3.409807 -2.203605,-4.44241 C 75.549093,71.751243 71.302528,68.948743 66.095561,62.757457 62.297985,58.241949 62.20836,57.556793 64.997092,54.357812 67.78948,51.154626 87.092319,34.971236 90.537611,32.944786 c 7.847322,-4.615661 11.164839,-3.188631 12.110579,5.209356 0.57861,5.137971 -1.14721,17.094057 -3.316595,22.976523 -0.849548,2.303629 -0.983708,2.418006 -1.756264,1.497308 -0.943273,-1.124148 -2.035945,-6.628115 -2.535375,-12.771094 -0.584357,-7.187554 -0.754218,-7.793924 -2.219182,-7.922092 -2.739243,-0.23965 -14.256942,8.517934 -16.542604,12.57832 -2.13289,3.78899 -1.604838,4.762792 5.292224,9.759617 9.465615,6.857706 11.38426,8.820726 12.568087,12.858761 1.007903,3.437955 0.226395,6.415604 -2.393088,9.118006 -1.789602,1.846245 -5.661529,3.59917 -8.898366,4.028522 -5.696309,0.755591 -16.436694,-3.782407 -26.299606,-11.112032 -3.562294,-2.647317 -4.457495,-2.748449 -6.791993,-0.767295 -2.051759,1.741211 -2.723548,3.392844 -1.992265,4.898145 0.733776,1.510435 5.420657,5.682705 8.429012,7.503526 3.127029,1.892644 6.531721,3.266125 12.754465,5.145251 6.004837,1.813323 9.511171,3.360098 12.536507,5.530322 3.153549,2.26219 9.089696,7.85727 14.017752,13.21234 4.532291,4.925 5.293831,6.51051 4.736751,9.86185 -0.797523,4.79783 -3.992672,9.57843 -10.824601,16.19583 l -4.517892,4.37602 -5.407432,0.56848 c -9.921474,1.04301 -14.998723,0.278 -25.767327,-3.88252 C 31.222745,133.11581 2.2916091,113.39268 2.8402581,107.12157 3.1241801,103.87635 17.921259,93.479422 21.544541,93.979313 c 0.983097,0.135644 1.009979,0.189258 0.666432,1.329589 -0.196907,0.653545 -1.396245,2.497784 -2.665216,4.098321 -2.784682,3.512277 -3.127922,4.510317 -2.407484,7.000157 0.489309,1.69103 1.068637,2.52545 4.923107,7.09084 7.665183,9.07901 12.871338,12.56901 29.532732,19.79789 8.222138,3.56734 12.037389,4.79799 16.40159,5.29048 5.46534,0.61676 12.790849,-0.56313 13.873767,-2.23461 0.941443,-1.4531 1.975343,-6.40746 2.3051,-11.04583 0.263866,-3.71163 0.05935,-11.73984 -0.368744,-14.47459 -0.04814,-0.30754 -2.476486,-1.42055 -5.588977,-2.56165 -3.027118,-1.10981 -9.154666,-3.49948 -13.616776,-5.31039 -9.279744,-3.766109 -12.538294,-4.915219 -16.998463,-5.994452 -1.742151,-0.421547 -4.122877,-1.220835 -5.290507,-1.776191 -3.430983,-1.63186 -10.018677,-7.61215 -10.76179,-9.769514 -0.307092,-0.891548 0.640016,-2.11594 8.173246,-10.566086 8.342255,-9.357653 8.745746,-9.77734 9.46927,-9.849376 z"
       id="path60"
       inkscape:export-xdpi="96"
       inkscape:export-ydpi="96" />
    <path
       id="path62"
       style="fill:#ffffff"
       transform="rotate(140)"
       d="m -49.658648,-84.102646 c -4.559223,5.816229 -4.300072,21.891692 -16.863181,15.330516 -9.129238,-4.767811 -19.082624,-4.294376 -20.433781,-15.330516 -1.348949,-11.018102 11.440847,-24.815124 18.648481,-17.458154 9.45369,9.649563 24.596825,9.869814 18.648481,17.458154 z"
       sodipodi:nodetypes="sssss"
       inkscape:export-xdpi="96"
       inkscape:export-ydpi="96" />
  </g>
</svg>
